<?xml version="1.0" encoding="utf-8"?>
<!-- Generator: Adobe Illustrator 16.0.4, SVG Export Plug-In . SVG Version: 6.00 Build 0)  -->
<!DOCTYPE svg PUBLIC "-//W3C//DTD SVG 1.1//EN" "http://www.w3.org/Graphics/SVG/1.1/DTD/svg11.dtd">
<svg version="1.1" id="Calque_1" xmlns="http://www.w3.org/2000/svg" xmlns:xlink="http://www.w3.org/1999/xlink" x="0px" y="0px"
	 width="1446.27px" height="612.865px" viewBox="0 0 1446.27 612.865" enable-background="new 0 0 1446.27 612.865"
	 xml:space="preserve">
<g>
	<rect x="259.824" y="103.996" fill="#D0E8F0" width="21.229" height="22.577"/>
	<rect x="233.895" y="130.573" fill="#A9D6E2" width="21.93" height="21.58"/>
	<rect x="259.824" y="156.153" fill="#A0D2DF" width="21.229" height="21.257"/>
	<rect x="206.988" y="181.41" fill="#8BC9DA" width="22.906" height="22.578"/>
	<rect x="233.895" y="156.153" fill="#A0D2DF" width="21.93" height="21.257"/>
	<rect x="181.732" y="375.987" fill="#1C414B" width="21.256" height="21.579"/>
	<rect x="233.895" y="103.996" fill="#D0E8F0" width="21.93" height="22.577"/>
	<rect x="259.824" y="130.573" fill="#A9D6E2" width="21.229" height="21.58"/>
	<rect x="360.066" y="103.996" fill="#D0E8F0" width="22.58" height="22.577"/>
	<rect x="386.646" y="130.573" fill="#A9D6E2" width="21.582" height="21.58"/>
	<rect x="334.488" y="103.996" fill="#D0E8F0" width="21.578" height="22.577"/>
	<rect x="386.646" y="103.996" fill="#D0E8F0" width="21.582" height="22.577"/>
	<rect x="309.91" y="103.996" fill="#D0E8F0" width="20.578" height="22.577"/>
	<rect x="285.053" y="156.153" fill="#A0D2DF" width="20.857" height="21.257"/>
	<rect x="285.053" y="130.573" fill="#A9D6E2" width="20.857" height="21.58"/>
	<rect x="285.053" y="103.996" fill="#D0E8F0" width="20.857" height="22.577"/>
	<rect x="156.152" y="401.566" fill="#173741" width="21.58" height="21.58"/>
	<rect x="155.83" y="181.41" fill="#8BC9DA" width="21.902" height="22.578"/>
	<rect x="155.83" y="156.153" fill="#A0D2DF" width="21.902" height="21.257"/>
	<rect x="155.83" y="130.573" fill="#A9D6E2" width="21.902" height="21.58"/>
	<rect x="156.152" y="375.987" fill="#1C414B" width="21.58" height="21.579"/>
	<rect x="156.152" y="299.25" fill="#287387" width="21.58" height="21.579"/>
	<rect x="156.152" y="324.829" fill="#286676" width="21.58" height="21.579"/>
	<rect x="156.152" y="350.408" fill="#204854" width="21.58" height="21.579"/>
	<rect x="181.732" y="273.668" fill="#2194AE" width="21.256" height="21.581"/>
	<rect x="181.732" y="324.829" fill="#286676" width="21.256" height="21.579"/>
	<rect x="181.732" y="350.408" fill="#204854" width="21.256" height="21.579"/>
	<rect x="181.732" y="299.25" fill="#287387" width="21.256" height="21.579"/>
	<rect x="129.572" y="130.573" fill="#A9D6E2" width="22.258" height="21.58"/>
	<rect x="181.732" y="401.566" fill="#173741" width="21.256" height="21.58"/>
	<rect x="129.572" y="156.153" fill="#A0D2DF" width="22.258" height="21.257"/>
	<rect x="181.732" y="247.088" fill="#3EAEC9" width="21.256" height="22.58"/>
	<rect x="386.646" y="181.41" fill="#8BC9DA" width="21.582" height="22.578"/>
	<rect x="386.494" y="324.829" fill="#286676" width="21.258" height="21.579"/>
	<rect x="386.494" y="299.25" fill="#287387" width="21.258" height="21.579"/>
	<rect x="386.494" y="350.408" fill="#204854" width="21.258" height="21.579"/>
	<rect x="309.91" y="156.153" fill="#A0D2DF" width="20.578" height="21.257"/>
	<rect x="386.494" y="273.668" fill="#2194AE" width="21.258" height="21.581"/>
	<rect x="386.494" y="401.566" fill="#173741" width="21.258" height="21.58"/>
	<rect x="386.494" y="247.088" fill="#3EAEC9" width="21.258" height="22.58"/>
	<rect x="412.229" y="156.153" fill="#A0D2DF" width="21.578" height="21.257"/>
	<rect x="103.996" y="156.153" fill="#A0D2DF" width="21.576" height="21.257"/>
	<rect x="437.807" y="103.996" fill="#D0E8F0" width="22.58" height="22.577"/>
	<rect x="386.646" y="156.153" fill="#A0D2DF" width="21.582" height="21.257"/>
	<rect x="156.152" y="273.668" fill="#2194AE" width="21.58" height="21.581"/>
	<rect x="386.494" y="375.987" fill="#1C414B" width="21.258" height="21.579"/>
	<rect x="309.91" y="130.573" fill="#A9D6E2" width="20.578" height="21.58"/>
	<rect x="412.229" y="130.573" fill="#A9D6E2" width="21.578" height="21.58"/>
	<rect x="103.996" y="130.573" fill="#A9D6E2" width="21.576" height="21.58"/>
	<rect x="360.914" y="375.987" fill="#1C414B" width="21.58" height="21.579"/>
	<rect x="360.914" y="350.408" fill="#204854" width="21.58" height="21.579"/>
	<rect x="360.914" y="299.25" fill="#287387" width="21.58" height="21.579"/>
	<rect x="360.914" y="324.829" fill="#286676" width="21.58" height="21.579"/>
	<rect x="360.914" y="273.668" fill="#2194AE" width="21.58" height="21.581"/>
	<rect x="360.914" y="220.509" fill="#82C5D7" width="21.58" height="22.579"/>
	<rect x="360.914" y="247.088" fill="#3EAEC9" width="21.58" height="22.58"/>
	<rect x="334.338" y="220.509" fill="#82C5D7" width="22.576" height="22.579"/>
	<rect x="360.066" y="181.41" fill="#8BC9DA" width="22.58" height="22.578"/>
	<rect x="360.066" y="156.153" fill="#A0D2DF" width="22.58" height="21.257"/>
	<rect x="334.488" y="130.573" fill="#A9D6E2" width="21.578" height="21.58"/>
	<rect x="334.488" y="181.41" fill="#8BC9DA" width="21.578" height="22.578"/>
	<rect x="360.066" y="130.573" fill="#A9D6E2" width="22.58" height="21.58"/>
	<rect x="360.914" y="401.566" fill="#173741" width="21.58" height="21.58"/>
	<rect x="334.488" y="156.153" fill="#A0D2DF" width="21.578" height="21.257"/>
	<rect x="334.338" y="350.408" fill="#204854" width="22.576" height="21.579"/>
	<rect x="386.494" y="220.509" fill="#82C5D7" width="21.258" height="22.579"/>
	<rect x="334.338" y="401.566" fill="#173741" width="22.576" height="21.58"/>
	<rect x="360.914" y="427.146" fill="#152C33" width="21.58" height="21.254"/>
	<rect x="386.494" y="427.146" fill="#152C33" width="21.258" height="21.254"/>
	<rect x="411.752" y="350.408" fill="#204854" width="22.578" height="21.579"/>
	<rect x="411.752" y="401.566" fill="#173741" width="22.578" height="21.58"/>
	<rect x="411.752" y="375.987" fill="#1C414B" width="22.578" height="21.579"/>
	<rect x="334.338" y="273.668" fill="#2194AE" width="22.576" height="21.581"/>
	<rect x="309.91" y="181.41" fill="#8BC9DA" width="20.578" height="22.578"/>
	<rect x="156.152" y="247.088" fill="#3EAEC9" width="21.58" height="22.58"/>
	<rect x="334.338" y="247.088" fill="#3EAEC9" width="22.576" height="22.58"/>
	<rect x="334.338" y="375.987" fill="#1C414B" width="22.576" height="21.579"/>
	<rect x="334.338" y="299.25" fill="#287387" width="22.576" height="21.579"/>
	<rect x="334.338" y="324.829" fill="#286676" width="22.576" height="21.579"/>
	<rect x="411.752" y="324.829" fill="#286676" width="22.578" height="21.579"/>
	<rect x="411.752" y="299.25" fill="#287387" width="22.578" height="21.579"/>
	<rect x="206.988" y="427.146" fill="#152C33" width="22.578" height="21.254"/>
	<rect x="129.574" y="427.146" fill="#152C33" width="22.578" height="21.254"/>
	<rect x="103.996" y="181.41" fill="#8BC9DA" width="21.576" height="22.578"/>
	<rect x="103.996" y="103.996" fill="#D0E8F0" width="21.576" height="22.577"/>
	<rect x="334.338" y="427.146" fill="#152C33" width="22.576" height="21.254"/>
	<rect x="437.807" y="181.41" fill="#8BC9DA" width="22.58" height="22.578"/>
	<rect x="259.824" y="181.41" fill="#8BC9DA" width="21.229" height="22.578"/>
	<rect x="411.752" y="427.146" fill="#152C33" width="22.578" height="21.254"/>
	<rect x="411.752" y="247.088" fill="#3EAEC9" width="22.578" height="22.58"/>
	<rect x="411.752" y="273.668" fill="#2194AE" width="22.578" height="21.581"/>
	<rect x="411.752" y="220.509" fill="#82C5D7" width="22.578" height="22.579"/>
	<rect x="437.807" y="156.153" fill="#A0D2DF" width="22.58" height="21.257"/>
	<rect x="412.229" y="181.41" fill="#8BC9DA" width="21.578" height="22.578"/>
	<rect x="437.807" y="130.573" fill="#A9D6E2" width="22.58" height="21.58"/>
	<rect x="412.229" y="103.996" fill="#D0E8F0" width="21.578" height="22.577"/>
	<rect x="285.053" y="181.41" fill="#8BC9DA" width="20.857" height="22.578"/>
	<rect x="181.732" y="103.996" fill="#D0E8F0" width="21.256" height="22.577"/>
	<rect x="129.572" y="181.41" fill="#8BC9DA" width="22.258" height="22.578"/>
	<rect x="155.83" y="103.996" fill="#D0E8F0" width="21.902" height="22.577"/>
	<rect x="129.572" y="103.996" fill="#D0E8F0" width="22.258" height="22.577"/>
	<rect x="129.574" y="375.987" fill="#1C414B" width="22.578" height="21.579"/>
	<rect x="129.574" y="220.509" fill="#82C5D7" width="22.578" height="22.579"/>
	<rect x="129.574" y="247.088" fill="#3EAEC9" width="22.578" height="22.58"/>
	<rect x="181.732" y="181.41" fill="#8BC9DA" width="21.256" height="22.578"/>
	<rect x="181.732" y="130.573" fill="#A9D6E2" width="21.256" height="21.58"/>
	<rect x="181.732" y="156.153" fill="#A0D2DF" width="21.256" height="21.257"/>
	<rect x="206.988" y="103.996" fill="#D0E8F0" width="22.906" height="22.577"/>
	<rect x="156.152" y="220.509" fill="#82C5D7" width="21.58" height="22.579"/>
	<rect x="206.988" y="130.573" fill="#A9D6E2" width="22.906" height="21.58"/>
	<rect x="206.988" y="156.153" fill="#A0D2DF" width="22.906" height="21.257"/>
	<rect x="129.574" y="350.408" fill="#204854" width="22.578" height="21.579"/>
	<rect x="129.574" y="401.566" fill="#173741" width="22.578" height="21.58"/>
	<rect x="206.988" y="350.408" fill="#204854" width="22.578" height="21.579"/>
	<rect x="206.988" y="375.987" fill="#1C414B" width="22.578" height="21.579"/>
	<rect x="206.988" y="324.829" fill="#286676" width="22.578" height="21.579"/>
	<rect x="206.988" y="273.668" fill="#2194AE" width="22.578" height="21.581"/>
	<rect x="129.574" y="324.829" fill="#286676" width="22.578" height="21.579"/>
	<rect x="206.988" y="401.566" fill="#173741" width="22.578" height="21.58"/>
	<rect x="206.988" y="299.25" fill="#287387" width="22.578" height="21.579"/>
	<rect x="206.988" y="247.088" fill="#3EAEC9" width="22.578" height="22.58"/>
	<rect x="129.574" y="273.668" fill="#2194AE" width="22.578" height="21.581"/>
	<rect x="129.574" y="299.25" fill="#287387" width="22.578" height="21.579"/>
	<rect x="233.895" y="181.41" fill="#8BC9DA" width="21.93" height="22.578"/>
	<rect x="206.988" y="220.509" fill="#82C5D7" width="22.578" height="22.579"/>
	<rect x="181.732" y="220.509" fill="#82C5D7" width="21.256" height="22.579"/>
	<rect x="156.152" y="427.146" fill="#152C33" width="21.58" height="21.254"/>
	<rect x="181.732" y="427.146" fill="#152C33" width="21.256" height="21.254"/>
</g>
<path fill="#142C33" d="M1339.257,434.995c-6.031,0-10.658-0.798-13.87-2.415c-3.222-1.605-5.63-4.267-7.24-7.99
	c-1.617-3.708-2.562-8.635-2.857-14.768c-0.312-6.133-0.46-13.827-0.46-23.07V222.117h-34.669v164.635
	c0,9.243-0.158,16.938-0.454,23.07c-0.307,6.133-1.31,11.06-3.021,14.768c-1.711,3.724-4.427,6.385-8.139,7.99
	c-3.72,1.617-8.895,2.415-15.529,2.415c-0.095,0-46.172-0.164-46.246-0.164c-9.047,0-27.998-5.061-34.024-8.276
	c-6.031-3.211-10.906-7.236-14.625-12.059c-3.718-4.827-6.433-10.15-8.145-15.992c-1.706-5.82-2.861-11.45-3.465-16.881h112.173
	c0-1.209,0.047-2.756,0.147-4.674c0.101-1.907,0.153-3.364,0.153-4.368c0.401-9.845-1.11-19.3-4.521-28.342
	c-3.427-9.053-8.345-17.038-14.777-23.979c-6.439-6.935-14.171-12.458-23.218-16.584c-9.044-4.114-19.099-6.274-30.154-6.48
	c-10.452,0.406-20.102,2.72-28.948,6.936c-8.847,4.22-16.537,9.748-23.064,16.583c-6.534,6.83-11.609,14.778-15.229,23.82
	c-3.616,9.043-5.423,18.597-5.423,28.647c0.396,10.854,2.562,20.8,6.48,29.853c3.924,9.042,9.194,16.839,15.828,23.366
	c3.042,3.001,6.35,5.683,9.883,8.065c-22.821-0.396-46.559-1.029-48.527-1.887c-3.719-1.605-6.481-4.267-8.293-7.99
	c-1.812-3.708-2.862-8.635-3.163-14.768c-0.308-6.133-0.454-13.827-0.454-23.07v-71.46h34.979v-17.493h-34.979v-75.682h-34.675
	v75.682h-35.878v17.493h35.878v71.46c0,9.243-0.148,16.938-0.46,23.07c-0.295,6.133-1.304,11.06-3.01,14.768
	c-1.711,3.724-4.421,6.385-8.14,7.99c-2.176,0.947-3.877,1.606-6.237,2.002c-2.862-0.396-5.249-1.051-7.141-2.002
	c-3.222-1.6-5.63-4.262-7.236-7.99c-1.61-3.708-2.566-8.635-2.862-14.768c-0.301-6.133-0.454-13.827-0.454-23.07v-9.649
	c0-12.259-1.357-23.267-4.072-33.021c-2.714-9.749-7.035-18.042-12.966-24.877c-5.932-6.828-13.617-12.104-23.065-15.828
	c-9.454-3.714-20.911-5.577-34.368-5.577c-24.333,0-42.972,7.083-55.938,21.258c-12.973,14.176-19.452,33.522-19.452,58.046v9.649
	c0,9.243-0.148,16.938-0.454,23.07c-0.302,6.133-1.252,11.06-2.863,14.768c-1.611,3.729-4.024,6.391-7.235,7.99
	c-3.217,1.617-7.839,2.415-13.87,2.415h-3.016c-0.074,0-42.639-0.164-42.718-0.164c-9.043,0-27.992-5.061-34.024-8.276
	c-6.031-3.211-10.907-7.236-14.62-12.059c-3.729-4.827-6.438-10.15-8.149-15.992c-1.706-5.82-2.862-11.45-3.465-16.881h112.167
	c0-1.209,0.052-2.756,0.153-4.674c0.1-1.907,0.152-3.364,0.152-4.368c0.402-9.845-1.109-19.3-4.526-28.342
	c-3.422-9.053-8.335-17.038-14.773-23.979c-6.433-6.935-14.176-12.458-23.213-16.584c-9.047-4.114-19.104-6.274-30.157-6.48
	c-10.458,0.406-20.103,2.72-28.944,6.936c-8.851,4.22-16.542,9.748-23.069,16.583c-6.534,6.83-11.609,14.778-15.228,23.82
	c-3.618,9.043-5.43,18.597-5.43,28.647c0.006,0.075,0.011,0.148,0.016,0.218c-2.006-3.676-4.31-7.173-6.913-10.469
	c-11.467-14.471-27.645-23.721-48.555-27.745c0.402-1.203,0.402-2.36,0-3.465c-0.4-1.109-0.4-2.266,0-3.47
	c0-4.826,0.555-8.439,1.664-10.853c1.099-2.41,2.81-4.125,5.123-5.124c2.309-1.009,5.224-1.553,8.747-1.659
	c3.512-0.1,7.686-0.152,12.512-0.152v-13.568h-56.388c0,12.464-0.057,21.707-0.146,27.744c-0.106,6.026-1.469,9.75-4.072,11.155
	c-5.836,1.61-12.169,4.173-18.999,7.685c-6.834,3.517-13.468,8.292-19.896,14.318v-74.772c0-9.242,0.195-16.933,0.602-23.07
	c0.396-6.121,1.506-11.049,3.317-14.768c1.806-3.723,4.568-6.385,8.293-7.996c3.713-1.605,8.888-2.408,15.528-2.408v-13.569h-89.557
	v13.569c6.031,0,10.807,0.803,14.324,2.408c3.512,1.611,6.28,4.273,8.286,7.996c2.008,3.719,3.322,8.646,3.925,14.768
	c0.597,6.138,0.903,13.828,0.903,23.07v102.517c0,9.254-0.148,16.938-0.454,23.076c-0.302,6.132-1.31,11.055-3.017,14.767
	c-1.711,3.719-4.421,6.386-8.139,7.992c-3.719,1.61-8.895,2.413-15.528,2.413v13.568h89.256V433.79h-3.022
	c-5.424,0-9.792-0.654-13.114-1.96c-3.317-1.304-5.783-3.569-7.389-6.786c-1.605-3.211-2.662-7.437-3.159-12.659
	c-0.507-5.226-0.755-11.652-0.755-19.305c0.999-7.236,3.666-13.617,7.985-19.147c4.321-5.523,9.302-10.146,14.928-13.863
	c5.63-3.724,11.307-6.533,17.038-8.445c5.725-1.913,10.601-2.868,14.625-2.868c5.424,0,10.948,1.104,16.578,3.316
	c5.626,2.219,10.754,5.726,15.375,10.559c4.628,4.827,8.445,10.954,11.462,18.391c3.021,7.441,4.521,16.39,4.521,26.836
	c0,14.478-0.502,26.641-1.5,36.49c-1.008,9.841-2.826,18.286-5.43,25.321c-2.619,7.041-6.031,13.173-10.252,18.396
	c-4.22,5.223-9.449,10.353-15.681,15.381l4.526,5.424c19.695-7.838,35.075-18.945,46.13-33.316
	c11.056-14.377,16.584-33.723,16.584-58.045c0-2.472-0.084-4.896-0.227-7.273c3.376,6.042,7.457,11.439,12.259,16.167
	c6.629,6.538,14.419,11.604,23.365,15.232c8.942,3.612,18.571,6.719,29.229,6.719c2.324,0.127,58.679,0.385,60.935,0.21h89.255
	v-13.567c-6.639,0-11.815-0.798-15.534-2.415c-3.712-1.6-6.433-4.262-8.134-7.99c-1.717-3.708-2.72-8.635-3.021-14.768
	s-0.454-13.827-0.454-23.07v-18.998c0-10.046,1.003-18.485,3.021-25.326c2.008-6.834,4.876-12.258,8.588-16.288
	c3.719-4.014,8.192-6.829,13.421-8.44c5.224-1.605,10.955-2.308,17.191-2.107c6.228-0.2,11.758,0.555,16.58,2.256
	c4.827,1.717,8.841,4.58,12.063,8.599c3.206,4.024,5.625,9.396,7.234,16.13c1.607,6.739,2.415,15.132,2.415,25.178v18.998
	c0,9.243-0.159,16.938-0.454,23.07c-0.302,6.133-1.306,11.06-3.016,14.768c-1.712,3.729-4.433,6.391-8.139,7.99
	c-3.725,1.617-8.9,2.415-15.534,2.415v13.567h73.082h16.173h145.927v-0.21c2.323,0.127,62.207,0.385,64.462,0.21h89.256v-13.567
	H1339.257z M1150.438,345.444c1.807-5.625,4.263-10.606,7.385-14.931c3.115-4.315,6.939-7.828,11.46-10.549
	c4.521-2.714,9.798-4.076,15.83-4.076h0.602c11.055,0,20.097,3.723,27.138,11.16c7.035,7.436,11.35,19.398,12.966,35.883h-79.003
	C1147.422,356.894,1148.626,351.074,1150.438,345.444z M738.839,345.444c1.806-5.625,4.267-10.606,7.384-14.931
	c3.116-4.315,6.939-7.828,11.461-10.549c4.521-2.714,9.797-4.076,15.829-4.076h0.602c11.049,0,20.103,3.723,27.143,11.16
	c7.03,7.436,11.351,19.398,12.962,35.883h-79.004C735.823,356.894,737.021,351.074,738.839,345.444z"/>
</svg>
