<?xml version="1.0" encoding="utf-8"?>
<!-- Generator: Adobe Illustrator 20.0.0, SVG Export Plug-In . SVG Version: 6.00 Build 0)  -->
<svg version="1.1" id="Calque_1" xmlns="http://www.w3.org/2000/svg" xmlns:xlink="http://www.w3.org/1999/xlink" x="0px" y="0px"
	 viewBox="0 0 256 256" enable-background="new 0 0 256 256" xml:space="preserve">
<path fill="#FFFFFF" d="M244,103h-16.589c-2.474-9.835-6.373-19.109-11.464-27.591l11.755-11.755c3.111-3.111,3.111-8.202,0-11.314
	L203.66,28.298c-3.111-3.111-8.202-3.111-11.314,0l-11.755,11.755c-8.482-5.091-17.756-8.99-27.591-11.464V12c0-4.4-3.6-8-8-8h-34
	c-4.4,0-8,3.6-8,8v16.589c-9.835,2.474-19.109,6.373-27.591,11.464L63.653,28.298c-3.111-3.111-8.202-3.111-11.314,0L28.298,52.34
	c-3.111,3.111-3.111,8.202,0,11.314l11.755,11.755c-5.091,8.482-8.99,17.756-11.464,27.591H12c-4.4,0-8,3.6-8,8v34c0,4.4,3.6,8,8,8
	h16.589c2.474,9.835,6.373,19.109,11.464,27.591l-11.755,11.755c-3.111,3.111-3.111,8.202,0,11.314l24.042,24.042
	c3.111,3.111,8.202,3.111,11.314,0l11.755-11.755c8.482,5.091,17.756,8.99,27.591,11.464V244c0,4.4,3.6,8,8,8h34c4.4,0,8-3.6,8-8
	v-16.589c9.835-2.474,19.109-6.373,27.591-11.464l11.755,11.755c3.111,3.111,8.202,3.111,11.314,0l24.042-24.042
	c3.111-3.111,3.111-8.202,0-11.314l-11.755-11.755c5.091-8.482,8.99-17.756,11.464-27.591H244c4.4,0,8-3.6,8-8v-34
	C252,106.6,248.4,103,244,103z M128,204.5c-42.25,0-76.5-34.25-76.5-76.5S85.75,51.5,128,51.5s76.5,34.25,76.5,76.5
	S170.25,204.5,128,204.5z"/>
</svg>
